<svg id="Layer_1" data-name="Layer 1" xmlns="http://www.w3.org/2000/svg" viewBox="0 0 344 344">
  <defs>
    <style>
      .cls-1 {
        fill: #82b0d8;
      }

      .cls-2 {
        fill: none;
        stroke: #82b0d8;
        stroke-miterlimit: 10;
        stroke-width: 12px;
      }
    </style>
  </defs>
  <title>quiz-place-holder</title>
  <path class="cls-1" d="M248.25,95.72c11.09.18,16.73,6.16,16.73,15.15,0,7.92-4.4,14.8-12.33,24.13-8.81,10.57-12,21-10.92,30.47l.35,4.58h13.74l-.18-4.58c-.52-9,2.29-16.73,10-25.89,8.46-10,15.15-18.67,15.15-30.65,0-13.39-9.16-25.89-29.41-25.89-9.34,0-19.38,2.82-25.19,7l4.23,11.1C234.86,97.83,241.9,95.72,248.25,95.72Z" transform="translate(-28 -28)"/>
  <g>
    <path class="cls-1" d="M159.92,291.62c-11.06-2.92-21.87-6.2-31.34-9.48a15.86,15.86,0,0,0-5-1.21c-19.44-.73-36.08-15.06-36.08-41.42s16-43.13,38.14-43.13,36.69,17.25,36.69,41.43c0,21-9.72,34.49-23.33,39.23v.49c8.14,2.06,17,4,23.93,5.22Zm-8.75-53.33c0-16.4-8.5-33.28-25.87-33.28-17.86,0-26.61,16.52-26.48,34.25-.13,17.37,9.47,33,26,33C141.7,272.3,151.17,257,151.17,238.29Z" transform="translate(-28 -28)"/>
    <path class="cls-1" d="M225.27,263.56c0,6.07.12,11.42.48,16h-9.47l-.61-9.59h-.24A22.15,22.15,0,0,1,196,280.93c-9.23,0-20.28-5.1-20.28-25.75V220.8h10.68v32.55c0,11.18,3.41,18.71,13.12,18.71a15.47,15.47,0,0,0,14.1-9.72,15.79,15.79,0,0,0,1-5.46V220.8h10.69Z" transform="translate(-28 -28)"/>
    <rect class="cls-1" x="215" y="192.8" width="10.69" height="58.79"/>
    <path class="cls-1" d="M264.74,273.4l26.6-34.62c2.56-3.16,5-6,7.66-9.11v-.25H267.17V220.8H312l-.12,6.68-26.23,34.13c-2.43,3.28-4.86,6.2-7.54,9.24v.24h34.38v8.5H264.74Z" transform="translate(-28 -28)"/>
  </g>
  <circle class="cls-2" cx="172" cy="172" r="166"/>
  <path class="cls-1" d="M249.75,178.62c-9.07,0-15.54,6.73-15.54,16.32,0,9.07,6.21,16.06,15.28,16.06,9.58,0,15.54-7,15.54-16.06C265,185.35,258.82,178.62,249.75,178.62ZM249.5,203a8.5,8.5,0,1,1,8.5-8.5A8.51,8.51,0,0,1,249.5,203Z" transform="translate(-28 -28)"/>
</svg>
